<mxfile host="app.diagrams.net" agent="Mozilla/5.0 (Windows NT 10.0; Win64; x64) AppleWebKit/537.36 (KHTML, like Gecko) Chrome/128.0.0.0 Safari/537.36" version="24.7.12">
  <diagram name="Page-1" id="mZGmTD_7BPJK_VsaXUO8">
    <mxGraphModel dx="954" dy="592" grid="1" gridSize="11" guides="1" tooltips="1" connect="1" arrows="1" fold="1" page="0" pageScale="1" pageWidth="827" pageHeight="1169" math="0" shadow="0">
      <root>
        <mxCell id="0" />
        <mxCell id="1" parent="0" />
        <mxCell id="TLmozkFcP366Yc0Cbgc4-1" value="Display" style="rounded=1;whiteSpace=wrap;html=1;fontSize=15;" vertex="1" parent="1">
          <mxGeometry x="310" y="140" width="290" height="60" as="geometry" />
        </mxCell>
        <mxCell id="TLmozkFcP366Yc0Cbgc4-2" value="7" style="rounded=1;whiteSpace=wrap;html=1;fontSize=15;" vertex="1" parent="1">
          <mxGeometry x="310" y="220" width="60" height="60" as="geometry" />
        </mxCell>
        <mxCell id="TLmozkFcP366Yc0Cbgc4-3" value="8" style="rounded=1;whiteSpace=wrap;html=1;fontSize=15;" vertex="1" parent="1">
          <mxGeometry x="384" y="220" width="60" height="60" as="geometry" />
        </mxCell>
        <mxCell id="TLmozkFcP366Yc0Cbgc4-4" value="9" style="rounded=1;whiteSpace=wrap;html=1;fontSize=15;" vertex="1" parent="1">
          <mxGeometry x="460" y="220" width="60" height="60" as="geometry" />
        </mxCell>
        <mxCell id="TLmozkFcP366Yc0Cbgc4-6" value="/" style="rounded=1;whiteSpace=wrap;html=1;fontSize=15;" vertex="1" parent="1">
          <mxGeometry x="539" y="220" width="60" height="60" as="geometry" />
        </mxCell>
        <mxCell id="TLmozkFcP366Yc0Cbgc4-7" value="4" style="rounded=1;whiteSpace=wrap;html=1;fontSize=15;" vertex="1" parent="1">
          <mxGeometry x="310" y="290" width="60" height="60" as="geometry" />
        </mxCell>
        <mxCell id="TLmozkFcP366Yc0Cbgc4-8" value="5" style="rounded=1;whiteSpace=wrap;html=1;fontSize=15;" vertex="1" parent="1">
          <mxGeometry x="384" y="290" width="60" height="60" as="geometry" />
        </mxCell>
        <mxCell id="TLmozkFcP366Yc0Cbgc4-9" value="6" style="rounded=1;whiteSpace=wrap;html=1;fontSize=15;" vertex="1" parent="1">
          <mxGeometry x="460" y="290" width="60" height="60" as="geometry" />
        </mxCell>
        <mxCell id="TLmozkFcP366Yc0Cbgc4-10" value="*" style="rounded=1;whiteSpace=wrap;html=1;fontSize=15;" vertex="1" parent="1">
          <mxGeometry x="539" y="290" width="60" height="60" as="geometry" />
        </mxCell>
        <mxCell id="TLmozkFcP366Yc0Cbgc4-11" value="1" style="rounded=1;whiteSpace=wrap;html=1;fontSize=15;" vertex="1" parent="1">
          <mxGeometry x="310" y="360" width="60" height="60" as="geometry" />
        </mxCell>
        <mxCell id="TLmozkFcP366Yc0Cbgc4-12" value="2" style="rounded=1;whiteSpace=wrap;html=1;fontSize=15;" vertex="1" parent="1">
          <mxGeometry x="384" y="360" width="60" height="60" as="geometry" />
        </mxCell>
        <mxCell id="TLmozkFcP366Yc0Cbgc4-13" value="3" style="rounded=1;whiteSpace=wrap;html=1;fontSize=15;" vertex="1" parent="1">
          <mxGeometry x="460" y="360" width="60" height="60" as="geometry" />
        </mxCell>
        <mxCell id="TLmozkFcP366Yc0Cbgc4-14" value="+" style="rounded=1;whiteSpace=wrap;html=1;fontSize=15;" vertex="1" parent="1">
          <mxGeometry x="539" y="360" width="60" height="60" as="geometry" />
        </mxCell>
        <mxCell id="TLmozkFcP366Yc0Cbgc4-15" value="CLEAR" style="rounded=1;whiteSpace=wrap;html=1;fontSize=15;" vertex="1" parent="1">
          <mxGeometry x="310" y="430" width="60" height="60" as="geometry" />
        </mxCell>
        <mxCell id="TLmozkFcP366Yc0Cbgc4-16" value="0" style="rounded=1;whiteSpace=wrap;html=1;fontSize=15;" vertex="1" parent="1">
          <mxGeometry x="384" y="430" width="60" height="60" as="geometry" />
        </mxCell>
        <mxCell id="TLmozkFcP366Yc0Cbgc4-17" value="=" style="rounded=1;whiteSpace=wrap;html=1;fontSize=15;" vertex="1" parent="1">
          <mxGeometry x="460" y="430" width="60" height="60" as="geometry" />
        </mxCell>
        <mxCell id="TLmozkFcP366Yc0Cbgc4-18" value="/" style="rounded=1;whiteSpace=wrap;html=1;fontSize=15;" vertex="1" parent="1">
          <mxGeometry x="539" y="430" width="60" height="60" as="geometry" />
        </mxCell>
      </root>
    </mxGraphModel>
  </diagram>
</mxfile>
